<svg width="807" height="207" xmlns="http://www.w3.org/2000/svg" xmlns:xlink="http://www.w3.org/1999/xlink" overflow="hidden"><defs><clipPath id="clip0"><rect x="138" y="190" width="807" height="207"/></clipPath></defs><g clip-path="url(#clip0)" transform="translate(-138 -190)"><rect x="138" y="191" width="806" height="205" fill="#FFFFFF"/><path d="M647.337 291.034 676.006 291.034C675.913 292.796 675.055 294.557 673.431 296.318 671.807 298.079 669.743 299.006 667.238 299.099L648.172 299.099C645.574 299.099 643.371 300.026 641.562 301.88 639.752 303.734 638.848 305.912 638.848 308.415L638.848 313.42C638.848 316.016 639.752 318.217 641.562 320.025 643.371 321.833 645.574 322.736 648.172 322.736L665.846 322.736C668.444 322.922 670.532 323.895 672.109 325.656 673.686 327.417 674.568 329.179 674.753 330.94L647.337 330.94C642.698 330.94 638.755 329.295 635.508 326.004 632.261 322.713 630.637 318.797 630.637 314.255L630.637 307.72C630.637 303.085 632.261 299.145 635.508 295.901 638.755 292.657 642.698 291.034 647.337 291.034ZM417.964 270.317C409.707 270.317 403.096 272.797 398.133 277.756 393.169 282.715 390.687 289.273 390.687 297.431 390.687 305.68 393.169 312.285 398.133 317.244 403.096 322.203 409.707 324.683 417.964 324.683 426.129 324.683 432.693 322.203 437.656 317.244 442.62 312.285 445.102 305.68 445.102 297.431 445.102 289.273 442.62 282.715 437.656 277.756 432.693 272.797 426.129 270.317 417.964 270.317ZM328.939 263.087 348.005 263.087C355.334 263.087 361.574 265.659 366.723 270.804 371.872 275.948 374.447 282.182 374.447 289.505L374.447 332.33C372.684 332.145 370.921 331.241 369.158 329.619 367.396 327.997 366.375 325.934 366.097 323.432L366.236 290.756C366.236 285.38 364.334 280.792 360.53 276.991 356.726 273.191 352.087 271.29 346.613 271.29L337.846 271.151C335.248 271.059 333.16 270.132 331.583 268.37 330.006 266.609 329.124 264.848 328.939 263.087ZM469.148 262.948 469.148 323.432C468.962 325.934 468.011 327.997 466.295 329.619 464.578 331.241 462.885 332.145 461.215 332.33L461.215 271.846C461.308 269.251 462.212 267.165 463.929 265.59 465.645 264.014 467.385 263.133 469.148 262.948ZM636.204 262.809 660.28 262.809C667.702 262.809 674.011 265.381 679.207 270.526 684.402 275.67 687 281.904 687 289.227L687 332.33C685.237 332.145 683.474 331.241 681.712 329.619 679.949 327.997 678.975 325.934 678.789 323.432L678.789 290.617C678.789 285.241 676.841 280.629 672.944 276.783 669.047 272.936 664.408 271.012 659.027 271.012L645.25 271.012C642.652 270.827 640.541 269.853 638.917 268.092 637.294 266.331 636.389 264.57 636.204 262.809ZM561.174 262.809C567.019 262.901 571.38 266.007 574.256 272.125L596.523 322.319 615.589 272.82C617.908 266.331 622.083 262.994 628.114 262.809L590.817 360C588.59 357.219 587.361 355.11 587.129 353.673 586.897 352.237 586.781 351.24 586.781 350.684 586.781 348.737 587.245 346.559 588.173 344.149L592.487 333.165ZM533.165 262.531C540.587 262.531 546.943 265.149 552.231 270.387 557.519 275.624 560.164 281.904 560.164 289.227L560.164 332.33C558.401 332.145 556.638 331.264 554.875 329.689 553.112 328.113 552.138 326.027 551.953 323.432L551.953 289.227C551.953 284.129 550.12 279.749 546.455 276.087 542.791 272.426 538.36 270.595 533.165 270.595 527.969 270.595 523.539 272.426 519.874 276.087 516.21 279.749 514.377 284.129 514.377 289.227L514.377 332.33C512.614 332.145 510.852 331.264 509.089 329.689 507.326 328.113 506.352 326.027 506.166 323.432L506.166 290.617C506.166 285.241 504.264 280.653 500.46 276.852 496.656 273.052 492.018 271.151 486.544 271.151L483.064 271.151C480.559 270.966 478.495 270.016 476.871 268.301 475.248 266.586 474.343 264.848 474.158 263.087L487.935 263.087C497.028 263.087 504.45 267.165 510.202 275.323 516.233 266.795 523.887 262.531 533.165 262.531ZM417.964 261.974C428.448 261.974 436.984 265.265 443.571 271.846 450.158 278.428 453.452 286.956 453.452 297.431 453.452 307.998 450.158 316.572 443.571 323.154 436.984 329.735 428.448 333.026 417.964 333.026 407.387 333.026 398.828 329.735 392.288 323.154 385.747 316.572 382.476 307.998 382.476 297.431 382.476 286.956 385.747 278.428 392.288 271.846 398.828 265.265 407.387 261.974 417.964 261.974ZM323.929 235 323.929 323.432C323.743 325.934 322.792 327.997 321.076 329.619 319.359 331.241 317.666 332.145 315.996 332.33L315.996 243.76C316.089 241.257 316.994 239.194 318.71 237.572 320.426 235.95 322.166 235.093 323.929 235ZM252.778 235 279.915 235C287.43 235 293.855 237.85 299.19 243.551 304.525 249.252 307.192 256.088 307.192 264.06 307.192 272.125 304.525 279.007 299.19 284.708 293.855 290.409 287.43 293.259 279.915 293.259L273.235 293.259 308.306 332.33 305.94 332.33C303.713 332.33 301.533 332.099 299.399 331.635 297.265 331.172 295.131 329.781 292.997 327.464L254.865 285.056 278.663 285.056C284.415 285.056 289.332 283.016 293.415 278.938 297.497 274.859 299.538 269.9 299.538 264.06 299.538 258.313 297.497 253.4 293.415 249.321 289.332 245.243 284.415 243.204 278.663 243.204L261.545 243.204C259.04 243.018 256.976 242.045 255.352 240.284 253.729 238.522 252.87 236.761 252.778 235ZM246.933 235 246.933 323.432C246.747 326.027 245.819 328.113 244.149 329.689 242.479 331.264 240.763 332.145 239 332.33L239 243.899C239.186 241.303 240.113 239.218 241.783 237.642 243.453 236.066 245.17 235.185 246.933 235Z" fill="#262626" fill-rule="evenodd"/><path d="M844 235 844 323.682C843.814 326.192 842.861 328.26 841.14 329.887 839.419 331.513 837.721 332.42 836.047 332.606L836.047 243.785C836.14 241.275 837.047 239.206 838.768 237.58 840.489 235.953 842.233 235.093 844 235ZM742 235C743.674 235.186 745.372 236.092 747.093 237.719 748.814 239.346 749.767 241.414 749.953 243.924L749.953 299.141C750.139 306.67 752.906 312.992 758.255 318.104 763.603 323.217 770.091 325.773 777.719 325.773 785.253 325.773 791.695 323.217 797.043 318.104 802.392 312.992 805.159 306.67 805.345 299.141L805.345 243.924C805.531 241.414 806.485 239.346 808.206 237.719 809.926 236.092 811.624 235.186 813.298 235L813.298 300.535C813.298 309.831 809.81 317.732 802.834 324.239 795.857 330.746 787.486 334 777.719 334 767.859 334 759.441 330.746 752.465 324.239 745.488 317.732 742 309.831 742 300.535Z" fill="#262626" fill-rule="evenodd"/></g></svg>